# xmcd CD database file
#
# Track frame offsets:
#	182
#	2852
#	6482
#	12220
#	14942
#	18047
#	19717
#	21492
#	26570
#	29180
#	31910
#	37170
#	40652
#	44622
#	47070
#	55487
#	59532
#	69950
#	71637
#	76722
#	79472
#	82182
#
# Disc length: 1285 seconds
#
# Revision: 0
# Processed by: cddbd v1.4PL0 Copyright (c) Steve Scherf et al.
# Submitted via: CDex 1.50
#
DISCID=2b050316
DTITLE=B. B. King - Blues Master I
DYEAR=1992
DGENRE=Blues
TTITLE0=You Upset Me Baby - Intro
TTITLE1=You Upset Me Baby - First Solo
TTITLE2=You Upset Me Baby - Second Solo
TTITLE3=Example 1
TTITLE4=Example 2
TTITLE5=Example 3
TTITLE6=Example 4
TTITLE7=Example 5
TTITLE8=Rock Me Baby - Intro
TTITLE9=Rock Me Baby - First Solo
TTITLE10=Rock Me Baby - Second Solo
TTITLE11=Example 6
TTITLE12=Example 7
TTITLE13=Example 8
TTITLE14=Example 9
TTITLE15=Nobody Loves Me But My Mother - Intro
TTITLE16=Nobody Loves Me But My Mother - Solo
TTITLE17=Example 10
TTITLE18=Example 11
TTITLE19=The Thrill Is Gone - Intro
TTITLE20=The Thrill Is Gone - First Solo
TTITLE21=The Thrill Is Gone - Second Solo
EXTD=YEAR: 1992
EXTT0=
EXTT1=
EXTT2=
EXTT3=
EXTT4=
EXTT5=
EXTT6=
EXTT7=
EXTT8=
EXTT9=
EXTT10=
EXTT11=
EXTT12=
EXTT13=
EXTT14=
EXTT15=
EXTT16=
EXTT17=
EXTT18=
EXTT19=
EXTT20=
EXTT21=
PLAYORDER=
